<svg width="254" height="87" viewBox="0 0 254 87" fill="none" xmlns="http://www.w3.org/2000/svg">
<path d="M69.9573 49.6093C69.405 48.6191 68.6191 47.6128 67.5995 46.5906C67.2915 46.2712 66.6596 45.7068 65.6984 44.9082C64.886 44.2374 64.27 43.6517 63.8664 43.1566C62.7884 41.8575 62.2521 40.5798 62.2521 39.3286C62.2521 38.5247 62.4114 37.8539 62.73 37.3161C63.123 36.6453 63.6965 36.3099 64.4558 36.3099C65.1674 36.3099 65.7144 36.5335 66.0914 36.986C66.6171 37.6143 66.9357 38.4874 67.0525 39.6108L71.0034 38.8867C70.9025 37.6888 70.5998 36.6347 70.0953 35.7136C69.5908 34.7925 68.9324 34.0791 68.1199 33.568C67.0738 32.9132 65.8153 32.5831 64.3443 32.5831C62.815 32.5831 61.5352 32.9717 60.505 33.7437C58.8323 35.0268 57.9933 36.9168 57.9933 39.4138C57.9933 40.8034 58.3013 42.0865 58.9119 43.2684C59.4801 44.3172 60.4466 45.5098 61.8166 46.8408C63.4469 48.3901 64.6683 49.5508 65.486 50.3227C66.5162 51.4461 67.0366 52.5801 67.0366 53.7195C67.0366 54.5074 66.8986 55.1144 66.6224 55.535C66.0861 56.3975 65.3639 56.8394 64.4612 56.8713C63.8186 56.9032 63.2557 56.6424 62.7566 56.0993C62.0875 55.3806 61.668 54.2199 61.4927 52.6227L57.5631 52.9049C57.6481 54.3637 57.9508 55.6574 58.4712 56.7914C58.9863 57.9201 59.6872 58.8146 60.5794 59.4694C61.6414 60.2734 62.9796 60.6727 64.5939 60.6727C65.4648 60.6727 66.2295 60.5715 66.8879 60.3639C68.1093 59.9859 69.0545 59.3363 69.7236 58.4153C70.7432 57.0576 71.237 55.4232 71.2052 53.5118C71.1892 52.7399 70.9874 51.8614 70.5945 50.8871C70.4299 50.5038 70.2175 50.0725 69.9573 49.6093Z" fill="#FE3B1F"/>
<path d="M78.2253 32.9344L73.5735 60.3532H77.8695L78.8732 54.0496H83.1798L84.1463 60.3532H88.4847L83.902 32.9344H78.2253ZM79.5157 50.0246L81.0451 39.2168L82.5744 50.0246H79.5157Z" fill="#FE3B1F"/>
<path d="M104.941 43.4601V39.4777C104.941 37.4918 104.469 35.9479 103.523 34.8405C102.445 33.5733 100.757 32.9344 98.4574 32.9344H91.9523V60.3532H96.0784V50.0246H98.4574C98.5901 50.0246 98.7123 50.0246 98.8291 50.0246L101.33 60.3532H105.791L102.737 48.3848C104.208 47.0378 104.941 45.398 104.941 43.4601ZM100.927 43.5452C100.927 44.2001 100.698 44.7644 100.236 45.233C99.7796 45.7015 99.2221 45.9357 98.5689 45.9357H96.0784V37.1564H98.5689C100.141 37.1564 100.927 37.9497 100.927 39.5416V43.5452Z" fill="#FE3B1F"/>
<path d="M115.811 32.9078H109.327V60.3479H115.811C117.601 60.3479 119.13 59.7037 120.394 58.4206C121.658 57.1375 122.295 55.5882 122.295 53.7834V39.4511C122.295 37.6569 121.663 36.1182 120.405 34.8351C119.146 33.552 117.617 32.9078 115.811 32.9078ZM118.275 53.8739C118.275 54.5181 118.047 55.0718 117.601 55.5456C117.149 56.0195 116.597 56.259 115.944 56.259H113.454V37.1351H115.944C116.587 37.1351 117.134 37.3694 117.59 37.8379C118.047 38.3064 118.281 38.8654 118.281 39.5256V53.8739H118.275Z" fill="#FE3B1F"/>
<path d="M130.043 32.9344H125.917V60.3532H130.043V32.9344Z" fill="#FE3B1F"/>
<path d="M142.479 54.0921C142.479 54.747 142.251 55.306 141.794 55.7639C141.338 56.2218 140.78 56.4507 140.127 56.4507C139.474 56.4507 138.911 56.2218 138.449 55.7639C137.982 55.306 137.748 54.747 137.748 54.0921V32.9344H133.712V54.1401C133.712 55.9502 134.344 57.4889 135.613 58.756C136.877 60.0231 138.422 60.662 140.238 60.662C142.044 60.662 143.584 60.0338 144.864 58.7826C146.143 57.5261 146.786 55.9822 146.786 54.1454V32.9344H142.485V54.0921H142.479Z" fill="#FE3B1F"/>
<path d="M162.584 49.6093C162.032 48.6191 161.246 47.6128 160.226 46.5906C159.918 46.2712 159.286 45.7068 158.325 44.9082C157.513 44.2374 156.897 43.6517 156.493 43.1566C155.415 41.8575 154.879 40.5798 154.879 39.3286C154.879 38.5247 155.038 37.8539 155.357 37.3161C155.75 36.6453 156.323 36.3099 157.083 36.3099C157.794 36.3099 158.341 36.5335 158.718 36.986C159.244 37.6143 159.562 38.4874 159.679 39.6108L163.63 38.8867C163.529 37.6888 163.227 36.6347 162.722 35.7136C162.218 34.7925 161.559 34.0791 160.747 33.568C159.701 32.9132 158.442 32.5831 156.971 32.5831C155.442 32.5831 154.162 32.9717 153.132 33.7437C151.459 35.0268 150.62 36.9168 150.62 39.4138C150.62 40.8034 150.928 42.0865 151.539 43.2684C152.107 44.3172 153.073 45.5098 154.443 46.8408C156.074 48.3901 157.295 49.5508 158.107 50.3227C159.143 51.4461 159.658 52.5801 159.658 53.7195C159.658 54.5074 159.52 55.1144 159.244 55.535C158.708 56.3975 157.985 56.8394 157.083 56.8713C156.44 56.9032 155.877 56.6424 155.378 56.0993C154.709 55.3806 154.289 54.2199 154.114 52.6227L150.185 52.9049C150.27 54.3637 150.572 55.6574 151.093 56.7914C151.608 57.9201 152.309 58.8146 153.201 59.4694C154.263 60.2734 155.601 60.6727 157.215 60.6727C158.086 60.6727 158.851 60.5715 159.509 60.3639C160.731 59.9859 161.676 59.3363 162.345 58.4153C163.365 57.0576 163.858 55.4232 163.827 53.5118C163.811 52.7399 163.609 51.8614 163.216 50.8871C163.057 50.5038 162.844 50.0725 162.584 49.6093Z" fill="#FE3B1F"/>
<path d="M182.099 52.6227L178.255 32.9078H172.339V60.3532H176.465V43.1513L180.458 60.3532H183.777L187.356 43.1087V60.3532H191.477V32.9078H185.79L182.099 52.6227Z" fill="#FE3B1F"/>
<path d="M195.168 60.3532H206.909V56.1952H199.294V48.7096H204.859V44.5515H199.294V37.0659H206.909V32.9078H195.168V60.3532Z" fill="#FE3B1F"/>
<path d="M216.228 32.9078H209.744V60.3479H216.228C218.018 60.3479 219.547 59.7037 220.811 58.4206C222.075 57.1375 222.712 55.5882 222.712 53.7834V39.4511C222.712 37.6569 222.08 36.1182 220.827 34.8351C219.563 33.552 218.034 32.9078 216.228 32.9078ZM218.697 53.8739C218.697 54.5181 218.469 55.0718 218.023 55.5456C217.572 56.0195 217.019 56.259 216.366 56.259H213.876V37.1351H216.366C217.009 37.1351 217.556 37.3694 218.012 37.8379C218.469 38.3064 218.697 38.8654 218.697 39.5256V53.8739Z" fill="#FE3B1F"/>
<path d="M230.46 32.9344H226.334V60.3532H230.46V32.9344Z" fill="#FE3B1F"/>
<path d="M238.558 32.9344L233.911 60.3532H238.207L239.211 54.0496H243.518L244.484 60.3532H248.823L244.24 32.9344H238.558ZM239.843 50.0246L241.372 39.2168L242.902 50.0246H239.843Z" fill="#FE3B1F"/>
<path d="M35.6902 17.7184H24.8945L15.6653 42.6828L35.6902 17.7184Z" fill="#FE3B1F"/>
<path d="M14.6244 45.6802L20.009 63.3134L35.2601 19.9492L23.4554 34.6701L14.6244 45.6802Z" fill="#FE3B1F"/>
<path d="M19.1063 72.5932L19.4355 65.081L16.106 54.172L13.7535 46.4628L1.38066 56.1313L2.72416 69.2178L8.50171 70.6499L19.0744 73.2693L19.1063 72.5932Z" fill="#FE3B1F"/>
<path d="M39.8216 15.6793L40.4535 15.4823L35.653 14.5293L37.0177 16.5578L39.8216 15.6793Z" fill="#FE3B1F"/>
<path d="M39.4233 19.289L47.5374 28.2387L42.567 15.9348L37.7506 17.4468L39.4233 19.289Z" fill="#FE3B1F"/>
<path d="M37.4266 20.3804L38.2657 48.0121L48.8543 31.6513L48.8596 31.5129L48.6897 31.0923L43.7458 25.6405L37.3735 18.6128L37.4266 20.3804Z" fill="#FE3B1F"/>
<path d="M15.4316 40.255L23.9917 17.1008L23.2961 0L2.82506 33.765L13.8226 44.6101L15.4316 40.255Z" fill="#FE3B1F"/>
<path d="M36.354 20.0503L34.6175 24.991L20.4976 65.1182L20.2905 69.8034L20.1471 73.0563L32.7802 66.6302L37.2567 49.6732L36.354 20.0503Z" fill="#FE3B1F"/>
<path d="M35.4088 60.8324L33.7785 67.0242L35.6743 77.9066L47.2984 63.521L48.7481 33.765L38.2816 49.9501L35.4088 60.8324Z" fill="#FE3B1F"/>
<path d="M20.0674 74.2915L18.3044 87L34.7715 78.9234L32.8333 67.8015L20.0674 74.2915Z" fill="#FE3B1F"/>
<path d="M35.8017 16.6535L34.1768 14.2364L34.129 14.2258C33.9219 14.1832 33.7413 14.0661 33.6245 13.8904L24.3634 0.101135L25.0378 16.6535H35.8017Z" fill="#FE3B1F"/>
<path d="M1.26915 54.8641L13.2278 45.5204L2.34182 34.7819L0 40.1432L1.26915 54.8641Z" fill="#FE3B1F"/>
<path d="M18.9842 74.3448L3.85524 70.5967L17.2849 86.622L18.9842 74.3448Z" fill="#FE3B1F"/>
<path d="M246.672 27.6636H247.585V32.4872H248.44V27.6636H249.343V26.8011H246.672V27.6636Z" fill="#FE3B1F"/>
<path d="M252.821 26.7958L252.056 30.8847L251.26 26.7958H250.033V32.4872H250.888V28.9201L251.717 32.4872H252.402L253.145 28.9095V32.4872H254V26.7958H252.821Z" fill="#FE3B1F"/>
<path d="M15.6653 42.6828L35.6902 17.7184L15.6653 42.6828Z" fill="#FE3B1F"/>
<path d="M35.2601 19.9492H35.2654L23.4554 34.6701L35.2601 19.9492Z" fill="#FE3B1F"/>
<path d="M14.6244 45.6802L20.009 63.3134L14.6244 45.6802Z" fill="#FE3B1F"/>
<path d="M13.7536 46.4628L16.106 54.172L13.7536 46.4628Z" fill="#FE3B1F"/>
<path d="M34.6175 24.991L20.4976 65.1183L34.6175 24.991Z" fill="#FE3B1F"/>
<path d="M39.8216 15.6793L40.4535 15.4823L39.8216 15.6793Z" fill="#FE3B1F"/>
<path d="M39.4233 19.289L37.7506 17.4468L42.567 15.9348L37.7506 17.4468L39.4233 19.289Z" fill="#FE3B1F"/>
<path d="M43.7458 25.6405L37.3735 18.6128L43.7458 25.6405Z" fill="#FE3B1F"/>
<path d="M32.7802 66.6303L37.2567 49.6732L32.7802 66.6303Z" fill="#FE3B1F"/>
<path d="M35.4088 60.8324L33.7785 67.0242L35.6743 77.9066L33.7785 67.0242L35.4088 60.8324Z" fill="#FE3B1F"/>
<path d="M38.2816 49.9501L48.7481 33.765L38.2816 49.9501Z" fill="#FE3B1F"/>
</svg>
