<svg version="1" xmlns="http://www.w3.org/2000/svg" width="978.667" height="978.667" viewBox="0 0 734.000000 734.000000"><path d="M359 2c0 .5-4.5 8.3-10.1 17.2-5.5 8.9-10.9 17.8-12 19.7-1.1 2-2.8 4.9-3.9 6.6-1.1 1.6-2.3 3.7-2.7 4.5-.3.8-.9 1.7-1.2 2-.3.3-1.2 1.6-2 3-3 5.2-59.1 97.5-59.9 98.5-.4.5-1.9 3-3.3 5.5-2.3 4-12.5 20.8-34.9 57.5-4 6.6-12.2 20.1-18.2 30-6 9.9-14.7 24.2-19.4 31.9-4.6 7.6-8.4 14-8.4 14.1 0 .2-1.3 3.2-2.9 6.7-1.6 3.5-6.5 14.6-10.9 24.8-8.8 20.2-8.6 18.9-6.8 35.5.3 2.7.8 8.1 1.1 12 .3 3.8.8 9.2 1 12 .3 2.7.7 7.7 1 11 .7 8.4 1.5 18 2.1 24.5.3 3 .7 7.7.9 10.5.9 11.5 1.6 20.2 2 22.5.2 1.4.6 6.5 1 11.5.3 4.9.7 10.1.9 11.5.3 1.4.7 6.1 1.1 10.5.4 4.4.9 8.8 1 9.7.2.9.6 5 .9 9 .4 4 .8 8.2 1 9.3.2 1.1.7 5.6 1.1 10 .3 4.4.8 9.3 1.1 11 .2 1.6.6 5.5.9 8.5.4 5.2 1 10.7 2 19.5.3 2.2.7 7.4 1.1 11.5.6 7.6 1.5 9.7 7 16 1.2 1.4 12.2 14.4 24.4 29s23.4 27.9 24.9 29.5c1.4 1.7 4.6 5.5 7.1 8.5s4.7 5.7 5 6c.3.3 3.9 4.5 8.1 9.5 35.4 42.3 50.4 60.1 51.2 60.6.5.4 5.9-1.8 12.1-4.8 6.1-3.1 19.7-9.7 30.1-14.8 10.5-5.1 30.7-15 45-22s33.2-16.2 42-20.5l16-7.8 9.5-11.8c5.2-6.5 12-14.8 15-18.4 3-3.6 6.9-8.3 8.5-10.5 2.9-3.6 7.7-9.7 11.3-14 1-1.1 6.4-7.9 12.2-15 5.8-7.2 11.2-13.9 12.2-15 .9-1.1 4.2-5.2 7.3-9 7.8-9.7 10.2-12.7 18.9-23.3 4.2-5.2 7.6-9.7 7.7-10 0-.4.2-1.5.4-2.5s.6-8.4 1-16.5c.3-8.1.8-17.9 1-21.7.2-3.9.6-12.6.9-19.5.4-6.9.8-16.3 1.1-21 .8-17.5 1.5-31.8 2-41.5 1.1-22.6 1.6-32.4 2-39.5.4-6.5 1.2-23.4 2-42 .9-20.6 1.7-36.1 2-39.5 1.4-16.2.9-19.7-3.9-31.6-2.6-6.3-6.8-16.6-9.3-22.9-2.5-6.3-5.1-12.9-5.8-14.5-.7-1.7-3.4-8.2-5.9-14.5-2.6-6.3-5.1-12.4-5.6-13.5-.5-1.1-2.3-5.6-4.1-10-1.7-4.4-5.5-13.9-8.4-21-3-7.2-6.1-15-7.1-17.5-2.2-5.7-1.5-5.1-7.1-6.2-2.6-.5-5.8-1.1-7.1-1.4-9.8-2-32.2-6.4-34.5-6.8-1.5-.3-3.5-.7-4.5-1-.9-.3-3.3-.7-5.2-1.1-15.1-2.4-14.9-2.3-21.1-11-3.2-4.4-5.8-8.6-5.8-9.3-.1-.6-.4-1.2-.9-1.2-.4 0-1.2-.9-1.7-1.9-.6-1.1-4.3-6.8-8.4-12.8-9.6-14.1-57.9-85.9-60.6-90C361.6 1.2 359-.1 359 2z"/></svg>